<?xml version="1.0" encoding="iso-8859-1"?>
<!-- Generator: Adobe Illustrator 16.0.0, SVG Export Plug-In . SVG Version: 6.00 Build 0)  -->
<!DOCTYPE svg PUBLIC "-//W3C//DTD SVG 1.1//EN" "http://www.w3.org/Graphics/SVG/1.1/DTD/svg11.dtd">
<svg version="1.1" id="Capa_1" xmlns="http://www.w3.org/2000/svg" xmlns:xlink="http://www.w3.org/1999/xlink" x="0px" y="0px"
	 width="611.997px" height="611.997px" viewBox="0 0 611.997 611.997" style="enable-background:new 0 0 611.997 611.997;"
	 xml:space="preserve">
<g>
	<path d="M594.389,126.198h-106.9V82.852c0-9.726-7.886-17.611-17.611-17.611H142.124c-9.726,0-17.611,7.885-17.611,17.611v43.347
		H17.611C7.885,126.198,0,134.083,0,143.809v309.742c0,9.727,7.885,17.611,17.611,17.611h106.901v29.209
		c0,5.293,4.29,9.582,9.582,9.582h12.336v27.221c0,5.293,4.29,9.582,9.582,9.582h57.761c5.292,0,9.582-4.289,9.582-9.582v-27.221
		h165.701v27.221c0,5.293,4.29,9.582,9.581,9.582h57.762c5.292,0,9.581-4.289,9.581-9.582v-27.221h11.924
		c5.292,0,9.581-4.291,9.581-9.582v-29.209h106.901c9.727,0,17.611-7.885,17.611-17.611V143.809
		C612,134.083,604.115,126.198,594.389,126.198z M448.62,446.491H163.379V139.162H448.62V446.491z M278.908,333.184h-29.308v14.525
		h-13.691v-14.525h-29.488c-10.658,0-19.297,8.641-19.297,19.297v64.348c0,10.658,8.64,19.297,19.297,19.297h72.487
		c10.658,0,19.297-8.639,19.297-19.297v-64.348C298.206,341.825,289.565,333.184,278.908,333.184z M248.77,389.135v28.355h-17.128
		v-28.355c-11.675,0-11.673,0-12.109,0l20.748-24.555l20.672,24.645C260.953,389.225,260.834,389.135,248.77,389.135z
		 M405.578,333.184h-29.308v14.525h-13.691v-14.525h-29.487c-10.657,0-19.297,8.641-19.297,19.297v64.348
		c0,10.658,8.64,19.297,19.297,19.297h72.486c10.658,0,19.298-8.639,19.298-19.297v-64.348
		C424.876,341.825,416.236,333.184,405.578,333.184z M375.439,389.135v28.355h-17.128v-28.355c-11.676,0-11.673,0-12.109,0
		l20.748-24.555l20.672,24.645C387.623,389.225,387.506,389.135,375.439,389.135z M342.243,213.412h-29.308v14.525h-13.691v-14.525
		h-29.487c-10.658,0-19.297,8.64-19.297,19.297v64.347c0,10.657,8.64,19.298,19.297,19.298h72.486
		c10.657,0,19.298-8.641,19.298-19.298v-64.347C361.541,222.052,352.901,213.412,342.243,213.412z M312.104,269.362v28.357h-17.128
		v-28.357c-11.676,0-11.673,0-12.109,0l20.748-24.554l20.672,24.643C324.288,269.452,324.17,269.362,312.104,269.362z"/>
</g>
<g>
</g>
<g>
</g>
<g>
</g>
<g>
</g>
<g>
</g>
<g>
</g>
<g>
</g>
<g>
</g>
<g>
</g>
<g>
</g>
<g>
</g>
<g>
</g>
<g>
</g>
<g>
</g>
<g>
</g>
</svg>
