<?xml version="1.0" encoding="iso-8859-1"?>
<!-- Generator: Adobe Illustrator 16.0.0, SVG Export Plug-In . SVG Version: 6.00 Build 0)  -->
<!DOCTYPE svg PUBLIC "-//W3C//DTD SVG 1.1//EN" "http://www.w3.org/Graphics/SVG/1.1/DTD/svg11.dtd">
<svg version="1.1" id="Capa_1" xmlns="http://www.w3.org/2000/svg" xmlns:xlink="http://www.w3.org/1999/xlink" x="0px" y="0px"
	 width="612px" height="612px" viewBox="0 0 612 612" style="enable-background:new 0 0 612 612;" xml:space="preserve">
<g>
	<path d="M543.981,160.777l-18.297,18.571c44.158,52.077,68.485,121.464,61.039,196.445
		c-12.315,124.002-112.79,223.666-236.88,235.068c-146.688,13.479-271.77-94.371-286.28-234.55H37.712
		c-15.717,0-25.54-17.015-17.681-30.626L77.85,245.565c7.859-13.609,27.503-13.608,35.361,0.001l57.806,100.122
		c7.859,13.61-1.964,30.624-17.681,30.624h-22.505c14.622,104.658,112.057,183.152,223.772,166.778
		c82.668-12.116,149.722-77.337,163.773-159.697c21.031-123.271-73.828-230.558-193.271-230.558
		c-38.734,0-76.119,11.237-108.234,32.52c-14.904,9.876-35.564,7.922-46.498-6.224c-11.906-15.401-8.188-37.389,7.687-48.109
		c34.455-23.276,73.515-37.822,114.438-42.886V50.184h-26.784c-9.216,0-16.686-7.47-16.686-16.686V16.686
		C249.028,7.471,256.5,0,265.714,0h124.21c9.216,0,16.686,7.471,16.686,16.686v16.812c0,9.215-7.47,16.686-16.686,16.686h-29.501
		v38.348c52.534,7.088,100.161,29.78,138.142,63.186l16.975-17.229l-12.439-11.499c-6.767-6.254-7.183-16.812-0.927-23.579
		l13.31-14.4c6.255-6.768,16.812-7.183,23.579-0.928l50.312,46.505c6.769,6.255,7.183,16.812,0.929,23.579l-13.31,14.399
		c-6.255,6.767-16.812,7.183-23.579,0.928L543.981,160.777z M361.604,314.24c-23.084-23.57-62.787-21.009-82.25,8.07
		c-11.684,17.455-11.505,41.047,0.298,58.42c14.344,21.111,39.598,27.998,61.139,20.692l67.067,54.629
		c12.822,10.443,29.816-6.398,19.489-19.313L373.5,369.393C380.224,350.844,376.333,329.28,361.604,314.24z"/>
</g>
<g>
</g>
<g>
</g>
<g>
</g>
<g>
</g>
<g>
</g>
<g>
</g>
<g>
</g>
<g>
</g>
<g>
</g>
<g>
</g>
<g>
</g>
<g>
</g>
<g>
</g>
<g>
</g>
<g>
</g>
</svg>
